<?xml version="1.0" standalone="no"?><svg xmlns="http://www.w3.org/2000/svg" viewBox="0 0 1440 320"><path fill="#0099ff" fill-opacity="1" d="M0,128L24,149.3C48,171,96,213,144,224C192,235,240,213,288,176C336,139,384,85,432,96C480,107,528,181,576,202.7C624,224,672,192,720,160C768,128,816,96,864,90.7C912,85,960,107,1008,144C1056,181,1104,235,1152,245.3C1200,256,1248,224,1296,208C1344,192,1392,192,1416,192L1440,192L1440,320L1416,320C1392,320,1344,320,1296,320C1248,320,1200,320,1152,320C1104,320,1056,320,1008,320C960,320,912,320,864,320C816,320,768,320,720,320C672,320,624,320,576,320C528,320,480,320,432,320C384,320,336,320,288,320C240,320,192,320,144,320C96,320,48,320,24,320L0,320Z"></path></svg>